<?xml version="1.0" encoding="UTF-8" standalone="no"?><!DOCTYPE svg PUBLIC "-//W3C//DTD SVG 1.1//EN" "http://www.w3.org/Graphics/SVG/1.1/DTD/svg11.dtd"><svg width="100%" height="100%" viewBox="0 0 134 134" version="1.1" xmlns="http://www.w3.org/2000/svg" xmlns:xlink="http://www.w3.org/1999/xlink" xml:space="preserve" xmlns:serif="http://www.serif.com/" style="fill-rule:evenodd;clip-rule:evenodd;stroke-linejoin:round;stroke-miterlimit:2;"><path d="M133.333,90.743c0,23.506 -19.084,42.59 -42.59,42.59l-48.153,0c-23.506,0 -42.59,-19.084 -42.59,-42.59l0,-48.153c0,-23.506 19.084,-42.59 42.59,-42.59l48.153,0c23.506,0 42.59,19.084 42.59,42.59l0,48.153Z" style="fill:#ffd55a;"/><g><g><g><path d="M97.185,47.218l-0.412,-0.084c-0.484,-0.097 -0.971,-0.056 -1.399,0.118c-0.419,0.171 -0.785,0.468 -1.04,0.897c-0.34,0.571 -0.385,1.05 -0.227,1.683c0.121,0.489 0.388,0.857 0.737,1.122c0.368,0.28 0.834,0.444 1.318,0.501c2.233,0.262 4.432,0.753 6.57,1.451c1.002,0.326 1.947,0.769 2.884,1.229l0.808,0.398c0.745,0.364 1.514,0.715 2.487,0.97c0.076,0.02 0.152,0.039 0.227,0.057c0.269,-0.085 0.315,-0.188 0.372,-0.262l0.024,-0.029c0.069,-0.087 0.155,-0.221 0.073,-0.843c-2.078,-4.312 -7.708,-6.195 -12.149,-7.15l-0.273,-0.058Zm-29.237,1.248l0.538,-0.094l0.275,-0.046c1.612,-0.267 3.522,-0.445 4.635,0.82c0.624,0.709 0.839,2.028 -0,2.707c-1.099,0.889 -2.284,0.86 -3.548,0.829c-0.434,-0.011 -0.877,-0.022 -1.329,0.004c-1.458,0.083 -2.859,0.325 -4.263,0.726c-3.081,0.88 -5.591,2.488 -8.222,4.253c-0.345,0.231 -0.698,-0.21 -0.533,-0.533c1.519,-2.975 4.462,-5.419 7.41,-6.908c1.574,-0.795 3.296,-1.455 5.037,-1.758Zm2.478,13.147c-0.442,-0.319 -0.928,-0.491 -1.436,-0.491c-0.508,-0 -0.994,0.172 -1.437,0.491c-0.435,0.314 -0.83,0.773 -1.158,1.344c-0.622,1.082 -1.01,2.576 -1.01,4.228c-0,1.651 0.388,3.145 1.01,4.227c0.328,0.571 0.723,1.03 1.158,1.344c0.443,0.319 0.929,0.491 1.437,0.491c0.508,0 0.994,-0.172 1.436,-0.491c0.436,-0.314 0.83,-0.773 1.158,-1.344c0.622,-1.082 1.01,-2.576 1.01,-4.227c0,-1.652 -0.388,-3.146 -1.01,-4.228c-0.328,-0.571 -0.722,-1.03 -1.158,-1.344Zm30.722,-0.491c0.508,-0 0.994,0.172 1.437,0.491c0.435,0.314 0.83,0.773 1.158,1.344c0.621,1.082 1.01,2.576 1.01,4.228c-0,1.651 -0.389,3.145 -1.01,4.227c-0.328,0.571 -0.723,1.03 -1.158,1.344c-0.443,0.319 -0.929,0.491 -1.437,0.491c-0.508,0 -0.994,-0.172 -1.436,-0.491c-0.436,-0.314 -0.83,-0.773 -1.158,-1.344c-0.622,-1.082 -1.01,-2.576 -1.01,-4.227c-0,-1.652 0.388,-3.146 1.01,-4.228c0.328,-0.571 0.722,-1.03 1.158,-1.344c0.442,-0.319 0.928,-0.491 1.436,-0.491Z" style="fill:#fff;"/></g></g><g><g><path d="M120.568,57.246c1.809,-0.857 3.888,-0.806 5.834,-0.551c3.938,1.827 -4.511,3.944 -5.517,2c0.989,7.289 -1.838,19.3 -9.921,23.094c-9.338,4.566 -19.469,-2.379 -19.101,-13.511c-2.002,-0.486 -0.611,-6.092 0.196,-8.37c-3.522,-0.548 -6.877,-0.871 -10.27,0.205c1.869,5.274 -4.787,21.147 -11.186,24.31c-4.961,3.426 -16.148,1.898 -20.604,-3.427c-3.18,-4.067 -4.768,-13.505 -3.009,-20.064c-0.015,-0.007 -0.031,-0.012 -0.046,-0.02c-0.105,1.032 -7.227,0.917 -6.871,-0.849c-10.23,0.183 -20.134,1.752 -30.26,2.858c-1.223,0.114 -1.283,0.981 -1.341,1.828c-0.05,0.726 -0.099,1.437 -0.877,1.648c-2.999,0.072 -1.638,-5.171 1.004,-5.658c2.522,-0.263 5.062,-0.606 7.611,-0.949c8.054,-1.086 16.192,-2.183 24.13,-0.838c1.112,-1.412 3.114,-0.91 4.746,-0.5c0.459,0.115 0.889,0.223 1.262,0.278c1.347,-7.954 23.035,-7.481 30.221,-4.254c7.672,-0.883 15.653,-1.388 23.261,-2.028c4.817,-1.545 10.426,-2.342 15.438,-0.836c0.694,-0.038 0.772,0.072 0.927,0.29c0.027,0.039 0.057,0.081 0.093,0.126c1.974,0.871 3.723,2.85 4.28,5.218Zm-2.622,8.827c-2.732,18.478 -21.801,20.521 -25.189,2.178c0.544,-0.238 0.935,-0.707 0.853,-1.617c-0.019,-3.998 1.222,-8.223 4.828,-10.446c3.727,-2.294 8.088,-2.521 12.4,-2.463c8.229,-0.196 8.056,6.682 7.108,12.348Zm-36.338,-6.48c2.314,-1.573 5.581,-1.664 8.164,-1.555c0.889,0.052 2.092,0.01 2.932,0.458c0.905,-1.772 2.297,-3.305 3.794,-4.326c-0.871,0.066 -1.745,0.135 -2.621,0.204c-5.409,0.425 -10.886,0.856 -16.227,0.7c1.67,0.978 3.322,2.807 3.958,4.519Zm-3.22,8.439c-7.161,24.651 -25.037,13.907 -26.986,10.748c-3.516,-5.228 -4.177,-17.936 -1.115,-21.334c3.588,-2.515 8.396,-2.442 12.862,-2.374c0.991,0.016 1.965,0.03 2.904,0.017c9.513,0.128 16.269,2.974 12.335,12.943Z" style="fill:#fff;"/></g></g></g></svg>