<?xml version="1.0" encoding="UTF-8" standalone="no"?><!DOCTYPE svg PUBLIC "-//W3C//DTD SVG 1.1//EN" "http://www.w3.org/Graphics/SVG/1.1/DTD/svg11.dtd"><svg width="100%" height="100%" viewBox="0 0 3619 1166" version="1.1" xmlns="http://www.w3.org/2000/svg" xmlns:xlink="http://www.w3.org/1999/xlink" xml:space="preserve" xmlns:serif="http://www.serif.com/" style="fill-rule:evenodd;clip-rule:evenodd;stroke-linejoin:round;stroke-miterlimit:2;"><g><g><g><path d="M2717.66,4.036l-12.257,-2.508c-14.414,-2.887 -28.905,-1.666 -41.639,3.514c-12.487,5.081 -23.362,13.929 -30.97,26.694c-10.107,16.998 -11.455,31.262 -6.764,50.104c3.617,14.559 11.557,25.512 21.946,33.423c10.952,8.335 24.82,13.197 39.234,14.889c66.477,7.808 131.948,22.432 195.593,43.192c29.818,9.73 57.964,22.91 85.855,36.587l24.044,11.846c22.176,10.845 45.085,21.297 74.033,28.884c2.277,0.596 4.521,1.158 6.755,1.689c8.026,-2.521 9.391,-5.575 11.088,-7.789l0.691,-0.863c2.064,-2.595 4.614,-6.564 2.201,-25.089c-61.88,-128.358 -229.479,-184.413 -361.682,-212.849l-8.128,-1.724Zm-870.341,37.162l16.013,-2.803l8.208,-1.391c47.968,-7.931 104.832,-13.236 137.963,24.417c18.586,21.118 24.982,60.369 -0,80.584c-32.716,26.48 -68.004,25.605 -105.631,24.672c-12.913,-0.32 -26.1,-0.647 -39.554,0.122c-43.397,2.491 -85.104,9.672 -126.906,21.622c-91.706,26.21 -166.431,74.059 -244.754,126.599c-10.278,6.892 -20.769,-6.252 -15.865,-15.864c45.214,-88.559 132.834,-161.305 220.6,-205.648c46.843,-23.669 98.103,-43.303 149.926,-52.31Zm73.775,391.366c-13.174,-9.499 -27.639,-14.633 -42.763,-14.633c-15.123,-0 -29.589,5.134 -42.762,14.633c-12.966,9.349 -24.703,22.993 -34.48,40.011c-18.499,32.204 -30.064,76.669 -30.064,125.834c-0,49.166 11.565,93.631 30.064,125.835c9.777,17.018 21.514,30.663 34.48,40.012c13.173,9.499 27.639,14.632 42.762,14.632c15.124,-0 29.589,-5.133 42.763,-14.632c12.965,-9.349 24.703,-22.994 34.479,-40.012c18.499,-32.204 30.064,-76.669 30.064,-125.835c-0,-49.165 -11.565,-93.63 -30.064,-125.834c-9.776,-17.018 -21.514,-30.662 -34.479,-40.011Zm914.559,-14.633c15.122,-0 29.588,5.134 42.766,14.633c12.964,9.349 24.7,22.993 34.475,40.011c18.5,32.204 30.065,76.669 30.065,125.834c0,49.166 -11.565,93.631 -30.065,125.835c-9.775,17.018 -21.511,30.663 -34.475,40.012c-13.178,9.499 -27.644,14.632 -42.766,14.632c-15.122,-0 -29.588,-5.133 -42.765,-14.632c-12.965,-9.349 -24.701,-22.994 -34.476,-40.012c-18.499,-32.204 -30.065,-76.669 -30.065,-125.835c-0,-49.165 11.566,-93.63 30.065,-125.834c9.775,-17.018 21.511,-30.662 34.476,-40.011c13.177,-9.499 27.643,-14.633 42.765,-14.633Z"/></g></g><g><g><path d="M3413.74,302.541c53.853,-25.503 115.75,-23.976 173.672,-16.402c117.242,54.399 -134.267,117.413 -164.222,59.534c29.443,217.009 -54.706,574.537 -295.324,687.492c-278.002,135.93 -579.569,-70.829 -568.626,-402.19c-59.611,-14.474 -18.176,-181.373 5.825,-249.172c-104.841,-16.308 -204.71,-25.92 -305.73,6.098c55.662,156.989 -142.497,629.527 -332.981,723.664c-147.666,101.993 -480.689,56.515 -613.336,-102.009c-94.674,-121.066 -141.96,-402.036 -89.574,-597.27c-0.46,-0.204 -0.938,-0.358 -1.39,-0.588c-3.13,30.705 -215.132,27.285 -204.539,-25.298c-304.522,5.467 -599.36,52.173 -900.792,85.096c-36.401,3.386 -38.184,29.196 -39.926,54.417c-1.492,21.599 -2.954,42.768 -26.106,49.051c-89.267,2.132 -48.762,-153.935 29.877,-168.418c75.094,-7.845 150.708,-18.04 226.574,-28.268c239.762,-32.325 482.036,-64.989 718.339,-24.929c33.094,-42.044 92.696,-27.091 141.27,-14.907c13.672,3.43 26.466,6.639 37.554,8.297c40.121,-236.796 685.724,-222.715 899.653,-126.642c228.37,-26.278 465.969,-41.315 692.437,-60.386c143.393,-45.99 310.369,-69.718 459.588,-24.871c20.649,-1.138 22.978,2.152 27.575,8.641c0.819,1.147 1.697,2.394 2.772,3.734c58.775,25.929 110.829,84.849 127.41,155.326Zm-78.051,262.794c-81.318,550.043 -648.972,610.873 -749.83,64.813c16.189,-7.088 27.831,-21.041 25.4,-48.13c-0.571,-119 36.369,-244.772 143.718,-310.95c110.931,-68.285 240.754,-75.057 369.127,-73.334c244.977,-5.834 239.825,198.927 211.585,367.601Zm-1081.72,-192.906c68.874,-46.842 166.141,-49.555 243.023,-46.313c26.467,1.552 62.272,0.307 87.271,13.638c26.944,-52.753 68.396,-98.385 112.953,-128.757c-25.938,1.967 -51.96,4.013 -78.025,6.063c-161.015,12.663 -324.051,25.484 -483.061,20.829c49.708,29.111 98.904,83.553 117.839,134.54Zm-95.86,251.22c-213.187,733.822 -745.334,413.977 -803.35,319.931c-104.645,-155.624 -124.33,-533.929 -33.178,-635.077c106.794,-74.867 249.931,-72.683 382.893,-70.655c29.486,0.45 58.468,0.893 86.444,0.485c283.179,3.821 484.298,88.533 367.191,385.316Z"/></g></g></g></svg>